<?xml version="1.0" encoding="UTF-8"?>
<!DOCTYPE svg PUBLIC "-//W3C//DTD SVG 1.1//EN" "http://www.w3.org/Graphics/SVG/1.1/DTD/svg11.dtd">
<!-- Creator: CorelDRAW X6 -->
<svg xmlns="http://www.w3.org/2000/svg" xml:space="preserve" width="71.6928mm" height="20mm" version="1.1" style="shape-rendering:geometricPrecision; text-rendering:geometricPrecision; image-rendering:optimizeQuality; fill-rule:evenodd; clip-rule:evenodd"
viewBox="0 0 7169 2000"
 xmlns:xlink="http://www.w3.org/1999/xlink">
 <defs>
  <style type="text/css">
   <![CDATA[
    .fil0 {fill:none}
    .fil1 {fill:#FEFEFE}
    .fil4 {fill:#0A8CCC}
    .fil2 {fill:#FEFEFE;fill-rule:nonzero}
     .text {fill:#FFFFFF;fill-rule:nonzero} /* text loga SPŠ Trutnov */
    .fil3 {fill:#323C8D;fill-rule:nonzero}
   ]]>
  </style>
 </defs>
 <g id="Vrstva_x0020_1">
  <metadata id="CorelCorpID_0Corel-Layer"/>
  <g id="_1068836992">
   <rect class="fil0" width="7169" height="2000"/>
   <g>
    <g id="logo_x0020_SPŠ_x0020_Trutnov">
     <circle id="ochranná_x0020_zóna" class="fil1" cx="1001" cy="1000" r="833"/>
     <path class="fil2" d="M253 942l668 -244 313 -114 0 151 392 -148c79,118 125,260 125,413 0,13 -1,26 -1,38l-667 254 -316 120 0 -162 -402 147c-72,-115 -114,-251 -114,-397 0,-20 0,-39 2,-58z"/>
     <g id="čáry">
      <path class="fil3" d="M270 1170l726 -264 17 -6 0 17 0 139 707 -269c2,8 4,16 6,24l-721 274 -17 7 0 -18 0 -139 -712 259c-2,-8 -4,-16 -6,-24z"/>
      <path class="fil3" d="M252 1042l869 -317 16 -6 0 18 0 138 537 -204c4,7 7,15 11,22l-556 212 -17 6 0 -18 0 -139 -858 313c-1,-8 -2,-17 -2,-25z"/>
      <path class="fil3" d="M310 1291l562 -205 17 -6 0 18 0 138 856 -325c1,8 2,17 3,25l-867 330 -17 6 0 -18 0 -138 -544 198c-4,-8 -7,-15 -10,-23z"/>
     </g>
     <path class="fil4" d="M253 942l668 -244 313 -114 0 151 392 -148c-135,-203 -365,-337 -625,-337 -394,0 -718,306 -748,692z"/>
     <path class="fil4" d="M1750 1038l-667 254 -316 120 0 -162 -402 147c133,212 368,353 636,353 400,0 729,-316 749,-712z"/>
    </g>
    <path class="text" d="M2013 886l0 -66c12,10 25,18 38,23 14,5 28,7 43,7 8,0 15,-1 21,-2 7,-2 12,-4 16,-6 4,-3 7,-6 9,-10 2,-3 3,-7 3,-11 0,-6 -1,-11 -5,-16 -3,-4 -7,-9 -13,-12 -6,-4 -12,-8 -20,-11 -8,-4 -16,-8 -25,-11 -23,-10 -40,-21 -52,-35 -11,-14 -16,-31 -16,-50 0,-15 3,-29 9,-40 6,-11 14,-20 25,-27 10,-7 23,-12 37,-15 13,-4 28,-5 44,-5 15,0 29,1 40,2 12,2 23,5 33,9l0 61c-5,-3 -10,-6 -16,-9 -6,-2 -12,-5 -18,-6 -6,-2 -12,-3 -18,-4 -6,-1 -12,-1 -18,-1 -7,0 -14,0 -20,2 -6,1 -11,3 -16,6 -4,2 -7,5 -9,9 -3,4 -4,8 -4,12 0,5 1,10 4,13 3,4 6,8 11,12 5,3 11,6 18,10 6,3 14,7 23,10 11,5 22,10 31,16 10,5 18,12 24,19 7,6 12,14 16,23 3,9 5,20 5,32 0,16 -3,30 -9,41 -7,11 -15,20 -26,27 -10,7 -23,12 -37,15 -14,3 -29,4 -45,4 -16,0 -31,-1 -45,-4 -15,-3 -28,-7 -38,-12z"/>
    <path id="1" class="text" d="M2371 895c-9,5 -24,7 -43,7 -46,0 -68,-24 -68,-71l0 -96 -34 0 0 -48 34 0 0 -45 64 -18 0 63 47 0 0 48 -47 0 0 85c0,22 9,33 26,33 7,0 14,-2 21,-6l0 48z"/>
    <path id="2" class="text" d="M2544 746c-7,-4 -17,-7 -27,-7 -14,0 -25,6 -33,16 -8,10 -12,24 -12,42l0 100 -64 0 0 -210 64 0 0 39 1 0c10,-28 29,-42 55,-42 7,0 13,1 16,2l0 60zm-2 -158l-49 66 -51 0 -48 -66 42 0 32 38 32 -38 42 0z"/>
    <path id="3" class="text" d="M2759 811l-137 0c2,30 21,45 57,45 24,0 44,-5 61,-16l0 47c-19,10 -44,15 -75,15 -34,0 -60,-9 -79,-28 -19,-19 -28,-45 -28,-78 0,-35 10,-63 30,-83 20,-20 45,-31 75,-31 30,0 54,9 71,28 16,18 25,42 25,73l0 28zm-60 -40c0,-30 -12,-45 -37,-45 -10,0 -19,4 -27,13 -7,8 -12,19 -13,32l77 0z"/>
    <path id="4" class="text" d="M3002 897l-64 0 0 -29 -1 0c-15,23 -37,34 -65,34 -26,0 -47,-9 -63,-28 -16,-18 -24,-44 -24,-77 0,-35 8,-62 26,-83 18,-21 41,-32 69,-32 27,0 46,10 57,29l1 0 0 -124 64 0 0 310zm-63 -102l0 -16c0,-13 -4,-25 -12,-34 -8,-9 -18,-13 -31,-13 -14,0 -26,6 -34,17 -8,11 -12,27 -12,46 0,19 4,33 12,43 8,10 19,15 32,15 14,0 24,-6 32,-16 9,-11 13,-25 13,-42z"/>
    <path id="5" class="text" d="M3259 897l-64 0 0 -116c0,-33 -12,-49 -35,-49 -11,0 -21,4 -28,13 -7,8 -11,19 -11,33l0 119 -64 0 0 -210 64 0 0 34 1 0c16,-26 38,-39 68,-39 46,0 69,29 69,87l0 128z"/>
    <path id="6" class="text" d="M3375 897l-65 0 0 -210 65 0 0 210zm33 -309l-64 66 -46 0 53 -66 57 0z"/>
    <path id="7" class="text" d="M3611 873l-1 0 0 121 -65 0 0 -307 65 0 0 32 1 0c16,-24 38,-37 67,-37 27,0 48,10 63,28 15,19 22,44 22,76 0,35 -9,63 -26,84 -17,22 -40,32 -69,32 -25,0 -44,-10 -57,-29zm-2 -86l0 17c0,14 4,26 11,35 8,9 18,14 30,14 15,0 26,-6 35,-17 8,-12 12,-28 12,-49 0,-37 -14,-55 -43,-55 -13,0 -24,5 -33,15 -8,10 -12,23 -12,40z"/>
    <path id="8" class="text" d="M3942 746c-8,-4 -17,-7 -27,-7 -14,0 -25,6 -33,16 -8,10 -12,24 -12,42l0 100 -65 0 0 -210 65 0 0 39 1 0c10,-28 28,-42 55,-42 7,0 12,1 16,2l0 60z"/>
    <path id="9" class="text" d="M4171 897l-64 0 0 -32 -1 0c-16,25 -38,37 -64,37 -49,0 -73,-29 -73,-88l0 -127 64 0 0 121c0,30 12,45 35,45 12,0 21,-4 28,-13 7,-8 11,-19 11,-33l0 -120 64 0 0 210zm-100 -243c-14,0 -26,-4 -35,-12 -9,-8 -13,-19 -13,-32 0,-13 4,-24 14,-33 9,-8 21,-12 35,-12 14,0 26,4 35,12 9,8 14,19 14,32 0,13 -5,24 -15,33 -10,8 -21,12 -35,12zm0 -64c-13,0 -20,7 -20,19 0,13 7,20 20,20 6,0 11,-2 15,-6 4,-4 6,-8 6,-14 0,-5 -2,-10 -6,-13 -4,-4 -9,-6 -15,-6z"/>
    <path id="10" class="text" d="M4558 897l-64 0 0 -119c0,-31 -11,-46 -34,-46 -10,0 -19,4 -26,14 -6,9 -10,20 -10,34l0 117 -64 0 0 -121c0,-29 -11,-44 -33,-44 -11,0 -20,4 -27,13 -6,9 -10,21 -10,36l0 116 -64 0 0 -210 64 0 0 33 1 0c7,-11 16,-20 28,-27 12,-7 26,-11 40,-11 29,0 50,13 61,39 16,-26 39,-39 70,-39 46,0 68,28 68,85l0 130z"/>
    <path id="11" class="text" d="M4809 687l-85 227c-20,54 -51,82 -93,82 -15,0 -28,-2 -38,-6l0 -51c8,5 18,7 28,7 16,0 28,-8 35,-23l11 -26 -85 -210 71 0 39 128c3,8 5,17 6,28l1 0c1,-8 3,-17 7,-28l39 -128 64 0z"/>
    <path id="12" class="text" d="M4821 892l0 -53c11,7 22,11 32,14 11,4 21,5 30,5 12,0 21,-1 27,-5 7,-3 10,-7 10,-14 0,-4 -1,-7 -4,-10 -3,-3 -7,-5 -12,-7 -4,-2 -10,-4 -15,-6 -6,-1 -11,-3 -16,-5 -9,-3 -16,-7 -22,-10 -7,-4 -12,-8 -16,-13 -5,-5 -8,-10 -10,-17 -2,-6 -4,-13 -4,-22 0,-12 3,-22 8,-30 5,-9 12,-16 21,-21 8,-5 18,-9 29,-12 11,-2 22,-4 34,-4 9,0 19,1 28,3 10,1 19,3 29,6l0 50c-9,-5 -17,-9 -27,-11 -9,-2 -18,-4 -27,-4 -4,0 -8,1 -12,2 -4,0 -7,1 -10,3 -3,1 -5,3 -7,5 -1,3 -2,5 -2,8 0,4 1,7 3,10 3,3 6,5 10,7 4,2 8,4 13,5 5,2 10,3 15,5 8,3 16,6 23,10 7,3 13,8 18,12 5,5 9,11 11,17 3,7 4,14 4,23 0,12 -2,23 -8,32 -5,9 -12,16 -21,21 -9,6 -19,10 -31,12 -12,3 -24,4 -36,4 -24,0 -45,-3 -65,-10z"/>
    <polygon id="13" class="text" points="5084,897 5020,897 5020,587 5084,587 "/>
    <path id="14" class="text" d="M5239 902c-35,0 -63,-10 -83,-29 -20,-20 -30,-46 -30,-80 0,-35 11,-62 31,-81 21,-20 49,-30 85,-30 34,0 62,10 81,30 20,19 30,45 30,77 0,35 -10,63 -31,83 -20,20 -48,30 -83,30zm1 -170c-15,0 -27,5 -35,16 -9,10 -13,25 -13,44 0,41 16,61 49,61 31,0 46,-21 46,-62 0,-40 -15,-59 -47,-59z"/>
    <path id="15" class="text" d="M5595 687l-78 210 -74 0 -74 -210 69 0 36 130c4,14 7,27 7,37l1 0c1,-10 4,-22 8,-36l37 -131 68 0z"/>
    <path id="16" class="text" d="M5790 897l-61 0 0 -30 -1 0c-14,23 -35,35 -62,35 -21,0 -37,-6 -48,-17 -12,-12 -18,-27 -18,-46 0,-41 24,-64 73,-71l57 -7c0,-23 -13,-35 -38,-35 -25,0 -48,8 -71,23l0 -49c9,-5 21,-9 37,-12 16,-4 30,-6 43,-6 59,0 89,30 89,90l0 125zm-60 -85l0 -14 -39 5c-21,2 -31,12 -31,28 0,8 2,14 8,18 5,5 12,7 20,7 13,0 22,-4 30,-12 8,-9 12,-19 12,-32zm41 -224l-64 66 -47 0 54 -66 57 0z"/>
    <path id="17" class="text" d="M5943 892l0 -53c11,7 22,11 32,14 11,4 21,5 30,5 12,0 21,-1 27,-5 7,-3 10,-7 10,-14 0,-4 -1,-7 -4,-10 -3,-3 -7,-5 -12,-7 -4,-2 -10,-4 -15,-6 -6,-1 -11,-3 -16,-5 -9,-3 -16,-7 -22,-10 -7,-4 -12,-8 -16,-13 -5,-5 -8,-10 -10,-17 -2,-6 -4,-13 -4,-22 0,-12 3,-22 8,-30 5,-9 12,-16 21,-21 8,-5 18,-9 29,-12 11,-2 22,-4 34,-4 9,0 19,1 28,3 10,1 19,3 29,6l0 50c-9,-5 -17,-9 -27,-11 -9,-2 -18,-4 -27,-4 -4,0 -8,1 -12,2 -4,0 -7,1 -10,3 -3,1 -5,3 -7,5 -2,3 -2,5 -2,8 0,4 1,7 3,10 3,3 6,5 10,7 4,2 8,4 13,5 5,2 10,3 15,5 8,3 16,6 23,10 7,3 13,8 18,12 5,5 9,11 11,17 3,7 4,14 4,23 0,12 -2,23 -8,32 -5,9 -12,16 -21,21 -9,6 -20,10 -31,12 -12,3 -24,4 -37,4 -23,0 -44,-3 -64,-10zm153 -304l-49 66 -50 0 -49 -66 42 0 32 38 32 -38 42 0z"/>
    <polygon id="18" class="text" points="6352,897 6274,897 6207,793 6206,793 6206,897 6142,897 6142,587 6206,587 6206,784 6207,784 6270,687 6346,687 6271,786 "/>
    <path id="19" class="text" d="M6470 902c-35,0 -62,-10 -82,-29 -20,-20 -30,-46 -30,-80 0,-35 10,-62 31,-81 20,-20 49,-30 84,-30 35,0 62,10 82,30 19,19 29,45 29,77 0,35 -10,63 -30,83 -21,20 -49,30 -84,30zm2 -170c-16,0 -28,5 -36,16 -8,10 -13,25 -13,44 0,41 17,61 49,61 31,0 47,-21 47,-62 0,-40 -16,-59 -47,-59z"/>
    <polygon id="20" class="text" points="6691,897 6626,897 6626,587 6691,587 "/>
    <path id="21" class="text" d="M6920 897l-61 0 0 -30 -1 0c-14,23 -35,35 -63,35 -20,0 -36,-6 -48,-17 -11,-12 -17,-27 -17,-46 0,-41 24,-64 72,-71l57 -7c0,-23 -12,-35 -37,-35 -25,0 -49,8 -71,23l0 -49c9,-5 21,-9 37,-12 15,-4 29,-6 42,-6 60,0 90,30 90,90l0 125zm-61 -85l0 -14 -38 5c-21,2 -31,12 -31,28 0,8 2,14 7,18 5,5 12,7 21,7 12,0 22,-4 30,-12 7,-9 11,-19 11,-32z"/>
    <polygon id="22" class="text" points="2232,1215 2149,1215 2149,1455 2082,1455 2082,1215 1999,1215 1999,1161 2232,1161 "/>
    <path id="23" class="text" d="M2371 1303c-8,-4 -17,-6 -27,-6 -15,0 -25,5 -33,16 -8,10 -12,24 -12,42l0 100 -65 0 0 -210 65 0 0 39 1 0c10,-28 28,-43 55,-43 7,0 12,1 16,3l0 59z"/>
    <path id="24" class="text" d="M2601 1455l-64 0 0 -32 -1 0c-16,24 -38,37 -64,37 -49,0 -73,-30 -73,-88l0 -127 64 0 0 121c0,29 12,44 35,44 12,0 21,-4 28,-12 7,-8 11,-19 11,-33l0 -120 64 0 0 210z"/>
    <path id="25" class="text" d="M2782 1452c-9,5 -24,8 -43,8 -45,0 -68,-24 -68,-71l0 -96 -34 0 0 -48 34 0 0 -45 64 -19 0 64 47 0 0 48 -47 0 0 85c0,21 9,32 26,32 7,0 14,-2 21,-6l0 48z"/>
    <path id="26" class="text" d="M3021 1455l-64 0 0 -117c0,-32 -12,-48 -35,-48 -11,0 -20,4 -28,12 -7,9 -11,20 -11,33l0 120 -64 0 0 -210 64 0 0 33 1 0c16,-25 38,-38 68,-38 46,0 69,29 69,86l0 129z"/>
    <path id="27" class="text" d="M3172 1460c-35,0 -62,-10 -82,-30 -20,-19 -30,-46 -30,-79 0,-35 10,-62 31,-82 21,-19 49,-29 84,-29 35,0 62,10 82,29 20,20 30,46 30,78 0,35 -10,62 -31,83 -20,20 -48,30 -84,30zm2 -170c-15,0 -27,5 -36,15 -8,11 -12,26 -12,45 0,40 16,60 48,60 31,0 47,-20 47,-62 0,-39 -16,-58 -47,-58z"/>
    <path id="28" class="text" d="M3528 1245l-78 210 -73 0 -75 -210 70 0 36 129c4,15 6,27 7,38l1 0c1,-10 3,-22 7,-37l38 -130 67 0z"/>
    <polygon id="29" class="text" points="3592,1403 3562,1507 3512,1507 3532,1403 "/>
    <path id="30" class="text" d="M3753 1443l0 -65c12,10 25,17 39,22 13,5 28,8 42,8 8,0 15,-1 22,-2 6,-2 11,-4 15,-7 4,-2 7,-5 9,-9 2,-4 3,-8 3,-12 0,-6 -1,-11 -4,-15 -4,-5 -8,-9 -14,-13 -6,-4 -12,-7 -20,-11 -8,-3 -16,-7 -25,-11 -23,-9 -40,-21 -51,-35 -12,-13 -17,-30 -17,-50 0,-15 3,-28 9,-39 6,-11 14,-20 25,-27 11,-7 23,-12 37,-16 14,-3 28,-5 44,-5 15,0 29,1 41,3 11,2 22,5 32,9l0 61c-5,-4 -10,-7 -16,-9 -6,-3 -12,-5 -18,-7 -6,-1 -12,-3 -18,-4 -6,0 -12,-1 -17,-1 -8,0 -15,1 -21,2 -6,2 -11,4 -15,6 -5,3 -8,6 -10,10 -3,3 -4,7 -4,12 0,5 2,9 4,13 3,4 6,8 11,11 5,4 11,7 18,10 6,4 14,7 23,11 11,5 22,10 31,15 10,6 18,12 24,19 7,7 12,15 16,24 3,9 5,19 5,31 0,17 -3,30 -9,41 -6,12 -15,21 -26,27 -10,7 -23,12 -37,15 -14,3 -29,5 -44,5 -17,0 -32,-2 -46,-4 -15,-3 -28,-7 -38,-13zm179 -369l-49 66 -50 0 -49 -66 42 0 32 38 32 -38 42 0z"/>
    <polygon id="31" class="text" points="4205,1455 4127,1455 4060,1351 4060,1351 4060,1455 3995,1455 3995,1144 4060,1144 4060,1342 4060,1342 4123,1245 4200,1245 4125,1344 "/>
    <path id="32" class="text" d="M4323 1460c-35,0 -62,-10 -82,-30 -20,-19 -30,-46 -30,-79 0,-35 10,-62 31,-82 21,-19 49,-29 84,-29 35,0 62,10 82,29 20,20 30,46 30,78 0,35 -10,62 -31,83 -20,20 -48,30 -84,30zm2 -170c-15,0 -27,5 -36,15 -8,11 -12,26 -12,45 0,40 16,60 48,60 31,0 47,-20 47,-62 0,-39 -16,-58 -47,-58z"/>
    <polygon id="33" class="text" points="4544,1455 4480,1455 4480,1144 4544,1144 "/>
    <path id="34" class="text" d="M4801 1455l-64 0 0 -117c0,-32 -12,-48 -35,-48 -11,0 -20,4 -28,12 -7,9 -10,20 -10,33l0 120 -65 0 0 -210 65 0 0 33 0 0c16,-25 38,-38 68,-38 46,0 69,29 69,86l0 129z"/>
    <path id="35" class="text" d="M4917 1455l-64 0 0 -210 64 0 0 210zm34 -309l-64 66 -47 0 53 -66 58 0z"/>
    <path id="36" class="text" d="M5230 1155l0 300 -64 0 0 -228c-4,4 -8,7 -13,9 -5,3 -10,6 -15,8 -6,2 -11,4 -17,6 -6,1 -12,2 -18,3l0 -54c17,-5 33,-12 48,-19 15,-8 28,-16 40,-25l39 0z"/>
    <path id="37" class="text" d="M5420 1460c-70,0 -105,-49 -105,-147 0,-51 10,-90 29,-117 19,-26 46,-40 82,-40 68,0 102,50 102,150 0,50 -9,88 -28,114 -18,27 -45,40 -80,40zm3 -254c-28,0 -42,35 -42,105 0,66 14,99 41,99 27,0 40,-34 40,-102 0,-68 -13,-102 -39,-102z"/>
    <path id="38" class="text" d="M5713 1155l0 300 -65 0 0 -228c-3,4 -8,7 -12,9 -5,3 -10,6 -16,8 -5,2 -11,4 -17,6 -6,1 -12,2 -17,3l0 -54c16,-5 32,-12 47,-19 15,-8 28,-16 41,-25l39 0z"/>
   </g>
  </g>
 </g>
</svg>
